<?xml version="1.0" standalone="no"?>
<!DOCTYPE svg PUBLIC "-//W3C//DTD SVG 20010904//EN"
 "http://www.w3.org/TR/2001/REC-SVG-20010904/DTD/svg10.dtd">
<svg version="1.0" xmlns="http://www.w3.org/2000/svg"
 width="2560.000000pt" height="2560.000000pt" viewBox="0 0 2560.000000 2560.000000"
 preserveAspectRatio="xMidYMid meet">

<g transform="translate(0.000000,2560.000000) scale(0.100000,-0.100000)"
fill="#000000" stroke="none">
<path d="M0 12800 l0 -12800 12800 0 12800 0 0 12800 0 12800 -12800 0 -12800
0 0 -12800z m13500 5690 c1007 -44 1937 -330 2775 -854 382 -238 728 -518
1050 -848 448 -457 782 -927 1055 -1483 427 -870 628 -1866 570 -2825 -39
-632 -162 -1196 -387 -1769 -35 -90 -62 -165 -60 -167 2 -3 283 -5 623 -7
l619 -2 3 -721 2 -722 -22 -6 c-13 -3 -502 -6 -1088 -6 l-1065 0 -64 -73
c-425 -477 -935 -883 -1511 -1204 -124 -69 -213 -113 -498 -243 l-43 -20 6
-513 c10 -994 15 -2204 9 -2221 -6 -15 -68 -16 -734 -16 -685 0 -729 1 -734
18 -2 9 -8 539 -11 1177 -4 638 -8 1161 -9 1163 -2 1 -61 -4 -132 -12 -123
-14 -187 -18 -474 -31 -321 -15 -899 37 -1255 111 -971 203 -1794 606 -2565
1254 -171 143 -458 431 -624 625 -708 826 -1157 1814 -1311 2882 -45 313 -50
400 -50 823 0 423 5 510 50 823 150 1038 583 2010 1252 2812 562 673 1263
1209 2045 1562 646 291 1359 461 2068 492 257 12 265 12 510 1z"/>
<path d="M12905 17939 c-1498 -106 -2856 -845 -3766 -2050 -565 -749 -906
-1630 -1006 -2600 -23 -227 -23 -751 0 -978 66 -642 228 -1218 497 -1766 247
-503 548 -931 944 -1340 l135 -140 2 430 c3 1003 4 1015 16 1023 7 5 754 9
1660 11 907 2 1763 5 1903 7 140 1 353 3 473 3 l219 1 -6 533 c-3 292 -8 1124
-11 1847 -3 723 -8 1440 -11 1593 -4 189 -2 282 5 291 8 10 163 13 745 15 640
2 734 0 739 -13 3 -8 6 -767 7 -1688 1 -920 3 -1821 5 -2003 2 -181 4 -388 4
-458 l1 -128 1216 1 1216 1 45 97 c230 495 374 1012 445 1594 19 161 22 231
22 578 0 347 -3 417 -22 578 -76 621 -229 1148 -487 1677 -362 740 -892 1379
-1560 1878 -713 533 -1548 869 -2429 977 -317 39 -702 50 -1001 29z"/>
<path d="M15727 9072 l-279 -2 6 -462 c4 -254 9 -464 11 -466 5 -5 229 112
371 194 285 163 679 452 908 666 l80 74 -410 -1 c-225 0 -534 -1 -687 -3z"/>
<path d="M12807 9063 c-1 -1 -694 -3 -1540 -4 -846 -1 -1536 -6 -1535 -10 4
-11 140 -131 253 -224 739 -607 1632 -1001 2550 -1124 309 -41 377 -46 730
-45 324 0 562 14 688 40 l27 6 0 673 c0 554 -2 675 -14 684 -9 8 -173 10 -585
9 -315 -2 -573 -4 -574 -5z"/>
</g>
</svg>
